<?xml version="1.0" encoding="UTF-8"?>
<svg width="28px" height="28px" viewBox="0 0 28 28" version="1.1" xmlns="http://www.w3.org/2000/svg" xmlns:xlink="http://www.w3.org/1999/xlink">
    <!-- Generator: sketchtool 41.2 (35397) - http://www.bohemiancoding.com/sketch -->
    <title>479442C8-EE33-4D39-A022-EB77BA10830B</title>
    <desc>Created with sketchtool.</desc>
    <defs></defs>
    <g id="Page-4" stroke="none" stroke-width="1" fill="none" fill-rule="evenodd">
        <g id="Final_approved_dashbaord" transform="translate(-1072.000000, -722.000000)" fill="#515356">
            <g id="#6" transform="translate(-41.000000, 657.000000)">
                <path d="M1131.508,75.696 L1127,80.204 L1122.492,75.696 L1120.504,77.684 L1127,84.208 L1133.496,77.684 L1131.508,75.696 Z M1138.2,79 C1138.2,85.16 1133.16,90.2 1127,90.2 C1120.84,90.2 1115.8,85.16 1115.8,79 C1115.8,72.84 1120.84,67.8 1127,67.8 C1133.16,67.8 1138.2,72.84 1138.2,79 L1138.2,79 Z M1141,79 C1141,71.272 1134.728,65 1127,65 C1119.272,65 1113,71.272 1113,79 C1113,86.728 1119.272,93 1127,93 C1134.728,93 1141,86.728 1141,79 L1141,79 Z" id="Arrow-Right-Active" transform="translate(1127.000000, 79.000000) scale(-1, 1) rotate(-270.000000) translate(-1127.000000, -79.000000) "></path>
            </g>
        </g>
    </g>
</svg>