<?xml version="1.0" encoding="UTF-8"?>
<svg width="28px" height="28px" viewBox="0 0 28 28" version="1.1" xmlns="http://www.w3.org/2000/svg" xmlns:xlink="http://www.w3.org/1999/xlink">
    <!-- Generator: sketchtool 41.2 (35397) - http://www.bohemiancoding.com/sketch -->
    <title>E13544D8-B920-443A-9F18-567EAD4D7674</title>
    <desc>Created with sketchtool.</desc>
    <defs></defs>
    <g id="Page-4" stroke="none" stroke-width="1" fill="none" fill-rule="evenodd">
        <g id="Final_approved_dashbaord" transform="translate(-1036.000000, -722.000000)" fill="#515356">
            <g id="#6" transform="translate(-41.000000, 657.000000)">
                <path d="M1095.508,75.696 L1091,80.204 L1086.492,75.696 L1084.504,77.684 L1091,84.208 L1097.496,77.684 L1095.508,75.696 Z M1102.2,79 C1102.2,85.16 1097.16,90.2 1091,90.2 C1084.84,90.2 1079.8,85.16 1079.8,79 C1079.8,72.84 1084.84,67.8 1091,67.8 C1097.16,67.8 1102.2,72.84 1102.2,79 L1102.2,79 Z M1105,79 C1105,71.272 1098.728,65 1091,65 C1083.272,65 1077,71.272 1077,79 C1077,86.728 1083.272,93 1091,93 C1098.728,93 1105,86.728 1105,79 L1105,79 Z" id="Arrow-Left" transform="translate(1091.000000, 79.000000) rotate(-270.000000) translate(-1091.000000, -79.000000) "></path>
            </g>
        </g>
    </g>
</svg>